# xmcd CD database file
#
# Track frame offsets:
#	150
#	16955
#	32279
#	47848
#	65479
#	80590
#	98026
#	113536
#	127242
#	142284
#	155830
#	168855
#
# Disc length: 2503 seconds
#
# Revision: 0
# Processed by: cddbd v1.5PL3 Copyright (c) Steve Scherf et al.
# Submitted via: CDex 1.50beta10
#
DISCID=9f09c50c
DTITLE=山口百恵 - Disc5  15才
DYEAR=2003
DGENRE=JPop
TTITLE0=ちっぽけな感傷
TTITLE1=倖せのまえぶれ
TTITLE2=名前のない時間
TTITLE3=聖少女
TTITLE4=清潔な恋
TTITLE5=伊豆の踊子
TTITLE6=野菊の墓
TTITLE7=慕情
TTITLE8=たけくらべ
TTITLE9=誰も愛せない
TTITLE10=乙女は待っている
TTITLE11=嵐の中の少女
EXTD=YEAR: 2003
EXTT0=
EXTT1=
EXTT2=
EXTT3=
EXTT4=
EXTT5=
EXTT6=
EXTT7=
EXTT8=
EXTT9=
EXTT10=
EXTT11=
PLAYORDER=
